<svg width="10" height="11" viewBox="0 0 10 11" fill="none" xmlns="http://www.w3.org/2000/svg">
<path d="M5 4.48949C4.75475 4.48949 4.51501 4.56222 4.31109 4.69847C4.10718 4.83472 3.94824 5.02838 3.85439 5.25496C3.76054 5.48155 3.73598 5.73087 3.78383 5.9714C3.83167 6.21194 3.94977 6.43289 4.12319 6.6063C4.2966 6.77972 4.51755 6.89782 4.75809 6.94567C4.99862 6.99351 5.24795 6.96896 5.47453 6.8751C5.70111 6.78125 5.89477 6.62232 6.03102 6.4184C6.16728 6.21448 6.24 5.97474 6.24 5.72949C6.24 5.56665 6.20793 5.40541 6.14561 5.25496C6.08329 5.10452 5.99196 4.96782 5.87681 4.85268C5.76167 4.73753 5.62497 4.6462 5.47453 4.58388C5.32408 4.52157 5.16284 4.48949 5 4.48949ZM9.965 3.26449C9.96237 2.87837 9.89127 2.49578 9.755 2.13449C9.65464 1.87012 9.49936 1.63004 9.29941 1.43008C9.09945 1.23013 8.85937 1.07485 8.595 0.974492C8.23372 0.838224 7.85112 0.767123 7.465 0.764492C6.82 0.729492 6.63 0.729492 5 0.729492C3.37 0.729492 3.18 0.729492 2.535 0.764492C2.14888 0.767123 1.76629 0.838224 1.405 0.974492C1.14063 1.07485 0.900547 1.23013 0.700593 1.43008C0.500638 1.63004 0.345359 1.87012 0.245 2.13449C0.108732 2.49578 0.0376304 2.87837 0.035 3.26449C-3.35276e-08 3.90949 0 4.09949 0 5.72949C0 7.35949 -3.35276e-08 7.54949 0.035 8.19449C0.0403819 8.58197 0.111387 8.96574 0.245 9.32949C0.344914 9.59265 0.500064 9.83135 0.7 10.0295C0.899097 10.2306 1.13969 10.3859 1.405 10.4845C1.76629 10.6208 2.14888 10.6919 2.535 10.6945C3.18 10.7295 3.37 10.7295 5 10.7295C6.63 10.7295 6.82 10.7295 7.465 10.6945C7.85112 10.6919 8.23372 10.6208 8.595 10.4845C8.86031 10.3859 9.1009 10.2306 9.3 10.0295C9.49994 9.83135 9.65509 9.59265 9.755 9.32949C9.89114 8.96643 9.96222 8.58222 9.965 8.19449C10 7.54949 10 7.35949 10 5.72949C10 4.09949 10 3.90949 9.965 3.26449ZM8.695 7.26449C8.67895 7.57304 8.6131 7.87697 8.5 8.16449C8.40293 8.40434 8.25863 8.62221 8.07568 8.80517C7.89272 8.98812 7.67484 9.13243 7.435 9.22949C7.14476 9.33629 6.83914 9.39539 6.53 9.40449C6.135 9.40449 6.03 9.40449 5 9.40449C3.97 9.40449 3.865 9.40449 3.47 9.40449C3.16087 9.39539 2.85524 9.33629 2.565 9.22949C2.31705 9.13735 2.09314 8.99035 1.91 8.79949C1.72883 8.62012 1.58892 8.40343 1.5 8.16449C1.39278 7.87455 1.3353 7.56858 1.33 7.25949C1.33 6.86449 1.33 6.75949 1.33 5.72949C1.33 4.69949 1.33 4.59449 1.33 4.19949C1.3353 3.8904 1.39278 3.58443 1.5 3.29449C1.59214 3.04654 1.73914 2.82263 1.93 2.63949C2.11017 2.4593 2.32663 2.31954 2.565 2.22949C2.85524 2.1227 3.16087 2.0636 3.47 2.05449C3.865 2.05449 3.97 2.05449 5 2.05449C6.03 2.05449 6.135 2.05449 6.53 2.05449C6.83914 2.0636 7.14476 2.1227 7.435 2.22949C7.68295 2.32163 7.90686 2.46863 8.09 2.65949C8.27117 2.83887 8.41108 3.05556 8.5 3.29449C8.6068 3.58474 8.6659 3.89036 8.675 4.19949C8.675 4.59449 8.675 4.69949 8.675 5.72949C8.675 6.75949 8.71 6.86449 8.695 7.25949V7.26449ZM7.895 3.54449C7.83547 3.38298 7.74161 3.23631 7.61989 3.1146C7.49818 2.99288 7.35151 2.89902 7.19 2.83949C6.96824 2.76262 6.73467 2.72539 6.5 2.72949C6.11 2.72949 6 2.72949 5 2.72949C4 2.72949 3.89 2.72949 3.5 2.72949C3.26413 2.7318 3.03053 2.77581 2.81 2.85949C2.65096 2.91632 2.50585 3.00635 2.38429 3.12359C2.26274 3.24084 2.16753 3.38261 2.105 3.53949C2.03239 3.76218 1.99691 3.99529 2 4.22949C2 4.61949 2 4.72949 2 5.72949C2 6.72949 2 6.83949 2 7.22949C2.00496 7.46509 2.04888 7.69824 2.13 7.91949C2.18953 8.081 2.28339 8.22767 2.40511 8.34939C2.52682 8.4711 2.67349 8.56496 2.835 8.62449C3.04833 8.70295 3.27283 8.74683 3.5 8.75449C3.89 8.75449 4 8.75449 5 8.75449C6 8.75449 6.11 8.75449 6.5 8.75449C6.73587 8.75219 6.96947 8.70818 7.19 8.62449C7.35151 8.56496 7.49818 8.4711 7.61989 8.34939C7.74161 8.22767 7.83547 8.081 7.895 7.91949C7.97868 7.69896 8.02269 7.46536 8.025 7.22949C8.025 6.83949 8.025 6.72949 8.025 5.72949C8.025 4.72949 8.025 4.61949 8.025 4.22949C8.02514 3.99339 7.98105 3.75935 7.895 3.53949V3.54449ZM5 7.63949C4.74941 7.63949 4.50128 7.59005 4.26983 7.49401C4.03838 7.39796 3.82815 7.25719 3.65119 7.07976C3.47423 6.90234 3.33401 6.69174 3.23857 6.46004C3.14313 6.22834 3.09434 5.98008 3.095 5.72949C3.095 5.35152 3.20715 4.98204 3.41724 4.66784C3.62734 4.35363 3.92594 4.10882 4.27523 3.96441C4.62453 3.81999 5.00883 3.78246 5.37947 3.85657C5.7501 3.93067 6.09042 4.11308 6.35734 4.3807C6.62426 4.64831 6.80578 4.98911 6.87891 5.35994C6.95204 5.73078 6.9135 6.11497 6.76817 6.46389C6.62284 6.81281 6.37725 7.11076 6.0625 7.32003C5.74774 7.5293 5.37797 7.64048 5 7.63949ZM7 4.19449C6.88947 4.18279 6.78718 4.1306 6.71284 4.04798C6.6385 3.96535 6.59737 3.85814 6.59737 3.74699C6.59737 3.63585 6.6385 3.52863 6.71284 3.44601C6.78718 3.36338 6.88947 3.31119 7 3.29949C7.11053 3.31119 7.21282 3.36338 7.28716 3.44601C7.3615 3.52863 7.40263 3.63585 7.40263 3.74699C7.40263 3.85814 7.3615 3.96535 7.28716 4.04798C7.21282 4.1306 7.11053 4.18279 7 4.19449Z" fill="white"/>
</svg>
