<svg width="8" height="13" viewBox="0 0 8 13" fill="none" xmlns="http://www.w3.org/2000/svg">
<path d="M7.12326 0.780277H4.9252C4.92019 0.780242 4.91519 0.780464 4.91021 0.780943C2.69099 0.787943 2.40115 2.33844 2.39999 3.69361C2.39691 3.70644 2.39534 3.71958 2.39532 3.73278V4.68411H0.876532C0.832354 4.68411 0.789986 4.70167 0.758748 4.73293C0.72751 4.76418 0.709961 4.80657 0.709961 4.85078V7.19694C0.709961 7.24115 0.72751 7.28354 0.758748 7.3148C0.789986 7.34605 0.832354 7.36361 0.876532 7.36361H2.39532V12.5121C2.39532 12.5563 2.41287 12.5987 2.44411 12.63C2.47535 12.6612 2.51772 12.6788 2.56189 12.6788H4.77845C4.82263 12.6788 4.86499 12.6612 4.89623 12.63C4.92747 12.5987 4.94502 12.5563 4.94502 12.5121V7.36378H7.1231C7.16728 7.36378 7.20964 7.34622 7.24088 7.31496C7.27212 7.28371 7.28967 7.24131 7.28967 7.19711V4.85094C7.28967 4.80674 7.27212 4.76435 7.24088 4.73309C7.20964 4.70184 7.16728 4.68428 7.1231 4.68428H4.77845V3.42311H7.1231C7.16728 3.42311 7.20964 3.40555 7.24088 3.37429C7.27212 3.34304 7.28967 3.30065 7.28967 3.25644V0.946944C7.28969 0.925065 7.2854 0.903395 7.27705 0.883175C7.2687 0.862955 7.25644 0.844581 7.24099 0.829103C7.22553 0.813624 7.20718 0.801344 7.18698 0.792967C7.16678 0.784589 7.14513 0.780277 7.12326 0.780277Z" fill="white"/>
</svg>
