<svg width="12" height="11" viewBox="0 0 12 11" fill="none" xmlns="http://www.w3.org/2000/svg">
<path d="M10.5251 2.42621C10.758 2.30588 11.3157 1.94838 11.5785 1.18105C11.5785 1.18105 10.945 1.63938 10.0829 1.69338L10.0672 1.70205C9.84129 1.45468 9.56625 1.25719 9.2597 1.12223C8.95315 0.987258 8.62183 0.917774 8.28691 0.918215C6.95302 0.918215 5.87181 2.00021 5.87181 3.33488C5.87181 3.53738 5.89696 3.73405 5.9441 3.92205L5.93244 3.90455C5.93244 3.90455 3.3456 4.05288 0.906835 1.38338C0.906835 1.38338 -0.171377 3.21688 1.67473 4.61905C1.27046 4.68638 0.556536 4.32238 0.556536 4.32238C0.556536 4.32238 0.596847 6.25005 2.51008 6.72205C2.20026 6.80305 1.62076 6.82971 1.4322 6.74905C1.4322 6.74905 1.71504 8.21838 3.66891 8.47471C3.17036 8.75788 2.24073 9.62055 0.138611 9.45871C0.138611 9.45871 1.64807 10.6989 4.45063 10.5239C7.25318 10.3489 9.28784 8.46105 10.1097 6.46588C10.9316 4.47071 10.7029 3.33471 10.7029 3.33471C10.7029 3.33471 11.3896 2.97405 11.8617 2.11138C11.6436 2.17671 10.8349 2.37438 10.534 2.44755C10.5309 2.44048 10.528 2.43337 10.5251 2.42621Z" fill="white"/>
</svg>
